<?xml version="1.0" encoding="utf-8"?>
<!-- Generator: Adobe Illustrator 24.1.1, SVG Export Plug-In . SVG Version: 6.00 Build 0)  -->
<svg version="1.1" id="Capa_1" xmlns="http://www.w3.org/2000/svg" xmlns:xlink="http://www.w3.org/1999/xlink" x="0px" y="0px"
	 viewBox="0 0 371.6 71.3" style="enable-background:new 0 0 371.6 71.3;" xml:space="preserve">
<style type="text/css">
	.st0{fill:#FFE8C7;stroke:#925100;stroke-width:0.72;stroke-miterlimit:1.44;}
</style>
<path class="st0" d="M186.4,0.4c-4.7-0.1-7.1,19.8-10.9,22.7s-22-1.7-23.5,3.1s15.2,13.3,16.6,18.3s-8.3,22-4.5,25.1
	s16.5-11.5,21.2-11.4s16.8,15.3,20.7,12.4s-5.1-20.5-3.5-25.3s18.7-12.6,17.4-17.5s-19.6-1.1-23.4-4.2S191.1,0.4,186.4,0.4
	L186.4,0.4z"/>
<path class="st0" d="M110.6,0.4c-4.7-0.1-7,19.8-10.9,22.7s-22-1.7-23.5,3.1s15.2,13.3,16.6,18.3s-8.3,22-4.5,25.1
	s16.5-11.5,21.2-11.4s16.8,15.3,20.7,12.4c3.9-2.9-5.1-20.5-3.5-25.3c1.6-4.8,18.7-12.6,17.3-17.5s-19.6-1.1-23.4-4.2
	S115.4,0.4,110.6,0.4L110.6,0.4z"/>
<path class="st0" d="M34.9,0.4c-4.7-0.1-7,19.8-11,22.7S2,21.3,0.5,26.2s15.2,13.3,16.6,18.3s-8.3,22-4.5,25.1S29,58,33.8,58.1
	s16.8,15.3,20.7,12.4S49.4,50.1,51,45.2s18.7-12.6,17.3-17.5s-19.6-1.1-23.4-4.2S39.7,0.4,34.9,0.4L34.9,0.4z"/>
</svg>
