<?xml version="1.0" encoding="utf-8"?>
<!-- Generator: Adobe Illustrator 24.1.1, SVG Export Plug-In . SVG Version: 6.00 Build 0)  -->
<svg version="1.1" id="Capa_1" xmlns="http://www.w3.org/2000/svg" xmlns:xlink="http://www.w3.org/1999/xlink" x="0px" y="0px"
	 viewBox="0 0 403.7 108.2" style="enable-background:new 0 0 403.7 108.2;" xml:space="preserve">
<style type="text/css">
	.st0{fill:#FFE8C7;stroke:#925100;stroke-width:0.7183;stroke-miterlimit:1.4366;}
</style>
<path class="st0" d="M207,29.9c-4.7-0.1-7.1,19.8-10.9,22.7c-3.9,2.9-22-1.7-23.5,3.1c-1.6,4.8,15.2,13.3,16.6,18.2
	c1.4,4.9-8.3,22-4.5,25.1c3.8,3.1,16.5-11.5,21.2-11.4c4.7,0.1,16.8,15.3,20.7,12.4c3.9-2.9-5.1-20.5-3.5-25.3
	c1.6-4.8,18.7-12.6,17.3-17.5c-1.4-4.9-19.6-1.1-23.4-4.2C213.2,49.9,211.7,30,207,29.9L207,29.9z"/>
<path class="st0" d="M131.3,29.9c-4.7-0.1-7.1,19.8-10.9,22.7c-3.9,2.9-22-1.7-23.5,3.1C95.2,60.5,112,69,113.4,73.9
	s-8.3,22-4.5,25.1c3.8,3.1,16.5-11.5,21.2-11.4c4.7,0.1,16.8,15.3,20.7,12.4c3.9-2.9-5.1-20.5-3.5-25.3c1.6-4.8,18.7-12.6,17.3-17.5
	c-1.4-4.9-19.6-1.1-23.4-4.2C137.5,49.9,136,30,131.3,29.9L131.3,29.9z"/>
<path class="st0" d="M55.5,29.9c-4.7-0.1-7.1,19.8-10.9,22.7s-22-1.7-23.5,3.1S36.3,69,37.7,73.9c1.4,4.9-8.3,22-4.5,25.1
	c3.8,3.1,16.5-11.5,21.2-11.4c4.7,0.1,16.8,15.3,20.7,12.4c3.9-2.9-5.1-20.5-3.5-25.3c1.6-4.8,18.7-12.6,17.3-17.5
	S69.3,56.1,65.6,53C61.8,49.9,60.3,30,55.5,29.9L55.5,29.9z"/>
<path class="st0" d="M282.7,29.9c-4.7-0.1-7.1,19.8-10.9,22.7c-3.9,2.9-22-1.7-23.5,3.1c-1.6,4.8,15.2,13.3,16.6,18.2
	s-8.3,22-4.5,25.1c3.8,3.1,16.5-11.5,21.2-11.4c4.7,0.1,16.8,15.3,20.7,12.4c3.9-2.9-5.1-20.5-3.5-25.3c1.6-4.8,18.7-12.6,17.3-17.5
	c-1.4-4.9-19.6-1.1-23.4-4.2S287.4,30,282.7,29.9L282.7,29.9z"/>
<path class="st0" d="M358.4,29.9c-4.7-0.1-7.1,19.8-10.9,22.7c-3.9,2.9-22-1.7-23.5,3.1s15.2,13.3,16.6,18.2s-8.3,22-4.5,25.1
	c3.8,3.1,16.5-11.5,21.2-11.4c4.7,0.1,16.8,15.3,20.7,12.4c3.9-2.9-5.1-20.5-3.5-25.3c1.6-4.8,18.7-12.6,17.3-17.5
	c-1.4-4.9-19.6-1.1-23.4-4.2S363.1,30,358.4,29.9L358.4,29.9z"/>
</svg>
